<?xml version="1.0" standalone="no"?>
<!DOCTYPE svg PUBLIC "-//W3C//DTD SVG 20010904//EN"
 "http://www.w3.org/TR/2001/REC-SVG-20010904/DTD/svg10.dtd">
<svg version="1.0" xmlns="http://www.w3.org/2000/svg"
 width="2376.000000pt" height="2376.000000pt" viewBox="0 0 2376.000000 2376.000000"
 preserveAspectRatio="xMidYMid meet">
<metadata>
Created by potrace 1.11, written by Peter Selinger 2001-2013
</metadata>
<g transform="translate(0.000000,2376.000000) scale(0.100000,-0.100000)"
fill="#000000" stroke="none">
<path d="M11557 23754 c-1 -1 -74 -5 -162 -8 -88 -4 -191 -9 -230 -11 -118 -8
-228 -16 -275 -20 -25 -2 -79 -7 -120 -10 -41 -3 -88 -8 -105 -10 -47 -6 -114
-14 -183 -20 -35 -4 -73 -8 -84 -10 -11 -3 -46 -7 -77 -10 -31 -4 -63 -8 -71
-10 -8 -2 -40 -7 -70 -11 -30 -3 -66 -8 -80 -10 -14 -3 -36 -6 -50 -8 -60 -9
-163 -27 -270 -46 -63 -12 -126 -23 -140 -25 -14 -2 -81 -15 -150 -30 -69 -14
-134 -28 -145 -30 -97 -21 -411 -96 -495 -120 -16 -4 -172 -47 -260 -71 -269
-73 -770 -244 -1055 -359 -11 -4 -24 -9 -30 -11 -24 -6 -424 -177 -560 -240
-152 -69 -569 -276 -680 -337 -185 -102 -326 -182 -453 -258 -41 -24 -93 -55
-115 -68 -23 -13 -78 -47 -122 -76 -44 -28 -115 -74 -158 -101 -70 -44 -391
-264 -448 -307 -13 -9 -63 -45 -110 -80 -81 -58 -359 -271 -404 -308 -11 -10
-92 -77 -180 -150 -88 -73 -176 -147 -195 -164 -19 -18 -64 -58 -100 -90 -291
-260 -730 -696 -929 -923 -9 -11 -41 -48 -72 -83 -167 -188 -341 -399 -502
-609 -53 -69 -101 -130 -107 -137 -37 -44 -268 -374 -390 -558 -130 -194 -298
-463 -372 -595 -14 -25 -34 -61 -45 -80 -246 -427 -503 -956 -697 -1438 -46
-114 -91 -227 -100 -252 -8 -25 -29 -83 -47 -130 -33 -92 -158 -456 -164 -480
-2 -8 -25 -85 -50 -170 -56 -185 -133 -466 -160 -580 -27 -118 -35 -152 -39
-171 -2 -13 -11 -51 -19 -84 -9 -33 -18 -73 -20 -90 -3 -16 -12 -61 -20 -100
-9 -38 -18 -86 -21 -106 -3 -20 -8 -42 -10 -50 -5 -13 -14 -63 -21 -116 -2
-12 -6 -34 -9 -50 -3 -15 -9 -45 -12 -67 -3 -21 -8 -48 -10 -60 -4 -20 -60
-403 -69 -476 -2 -19 -7 -57 -10 -85 -2 -27 -7 -68 -9 -90 -3 -22 -7 -69 -11
-105 -3 -36 -8 -81 -10 -100 -3 -30 -12 -141 -20 -260 -5 -66 -17 -295 -21
-380 -5 -118 -5 -753 0 -875 5 -121 16 -320 21 -395 15 -202 17 -224 30 -350
3 -30 8 -77 11 -105 3 -27 7 -66 9 -85 32 -258 46 -368 50 -380 2 -8 7 -37 10
-65 4 -27 8 -57 10 -65 2 -8 7 -37 10 -65 4 -27 13 -81 20 -120 8 -38 16 -86
19 -105 3 -19 8 -44 10 -55 7 -32 47 -227 52 -255 2 -14 11 -52 19 -85 8 -33
17 -75 20 -94 3 -19 8 -37 10 -41 2 -3 6 -18 9 -33 4 -15 8 -39 12 -54 3 -14
16 -70 30 -122 14 -53 27 -104 29 -114 7 -31 57 -211 71 -258 8 -25 16 -54 19
-65 12 -58 212 -668 235 -719 5 -11 19 -47 30 -80 12 -33 25 -69 30 -80 5 -11
34 -85 65 -165 32 -80 64 -161 72 -180 8 -19 19 -44 24 -55 4 -11 23 -54 42
-95 19 -42 38 -87 42 -100 4 -14 11 -29 15 -35 3 -5 38 -77 76 -160 112 -244
270 -553 409 -800 35 -60 71 -126 82 -145 24 -42 77 -131 108 -180 12 -19 59
-96 105 -170 162 -261 366 -556 584 -845 82 -109 313 -403 326 -415 3 -3 41
-48 85 -100 44 -52 83 -97 86 -100 3 -3 35 -39 70 -80 35 -41 71 -82 79 -91 8
-8 60 -64 115 -124 247 -270 653 -662 930 -900 39 -33 72 -63 75 -66 5 -6 149
-126 235 -196 161 -130 386 -303 537 -411 40 -29 78 -56 84 -61 5 -4 30 -21
55 -37 24 -16 46 -32 49 -35 20 -23 496 -328 720 -461 296 -175 780 -430 1035
-545 39 -18 102 -46 140 -64 144 -65 345 -149 500 -209 88 -34 169 -66 180
-71 176 -78 1048 -351 1234 -386 14 -2 28 -6 33 -9 5 -3 21 -8 36 -10 15 -3
61 -13 102 -24 194 -49 508 -114 650 -136 19 -3 42 -7 50 -9 8 -3 32 -7 54
-11 21 -3 48 -7 59 -10 12 -2 39 -6 62 -9 22 -3 65 -10 95 -15 69 -11 112 -17
175 -25 28 -3 60 -8 72 -10 12 -3 46 -8 75 -10 29 -3 70 -7 91 -10 91 -12 116
-15 177 -20 36 -3 83 -8 105 -10 22 -3 67 -7 100 -9 33 -3 92 -8 130 -11 410
-33 1297 -39 1595 -10 19 2 82 6 140 10 58 3 123 8 145 10 22 2 69 7 105 10
36 3 85 8 110 11 25 2 68 6 95 9 28 2 67 7 88 10 93 13 115 16 157 20 56 6 72
8 245 35 120 18 188 29 390 65 77 14 202 39 325 67 74 16 142 31 150 33 79 17
300 72 405 100 72 20 138 38 147 40 38 8 391 117 518 158 270 89 773 280 955
362 28 13 96 43 151 68 221 98 577 272 779 382 68 37 323 180 357 200 34 20
184 110 200 120 105 63 189 116 347 221 102 67 191 127 196 131 6 5 60 43 120
85 179 125 271 193 435 321 154 120 436 350 455 371 6 6 37 34 69 61 33 28 72
61 86 75 15 14 67 61 116 105 229 206 562 539 774 774 47 52 92 101 101 110
60 61 307 359 527 636 117 147 435 594 533 749 15 22 54 84 87 136 86 133 280
456 342 570 29 52 64 115 78 140 55 99 302 594 364 730 292 642 576 1456 713
2040 2 8 15 61 29 117 14 56 27 112 30 125 2 13 10 46 16 73 6 28 13 59 16 70
2 11 6 31 9 45 3 14 7 36 10 50 3 14 9 48 15 75 6 28 12 61 15 75 3 14 7 36
10 50 9 44 15 73 20 115 5 37 8 51 20 115 3 14 10 57 16 95 6 39 12 81 15 95
2 14 6 45 10 70 3 25 9 70 14 100 5 30 12 82 16 115 3 33 8 67 9 76 2 9 6 52
10 95 3 43 8 86 10 94 2 8 7 51 10 95 4 44 8 91 10 105 2 14 7 70 10 125 4 55
9 123 11 150 26 368 26 1190 -1 1545 -3 30 -7 89 -10 130 -11 150 -17 216 -21
240 -2 14 -6 61 -10 105 -3 44 -7 87 -9 95 -2 8 -7 42 -10 75 -4 33 -8 71 -11
85 -2 14 -6 48 -9 75 -4 28 -8 61 -10 75 -2 14 -11 75 -20 135 -9 61 -23 146
-30 190 -8 44 -17 96 -20 115 -3 19 -10 58 -15 85 -6 28 -12 61 -15 75 -3 14
-7 36 -10 50 -8 36 -14 71 -20 105 -3 17 -8 37 -10 45 -2 8 -7 31 -10 50 -3
19 -10 51 -16 70 -8 31 -65 268 -74 311 -2 10 -20 79 -40 155 -133 507 -311
1030 -516 1524 -60 144 -73 174 -121 280 -14 30 -38 84 -54 120 -37 84 -341
689 -354 705 -5 6 -25 41 -43 76 -19 35 -43 80 -54 99 -71 123 -163 278 -215
360 -33 52 -65 104 -71 115 -7 11 -29 45 -49 77 -21 31 -38 61 -38 67 0 5 -3
11 -8 13 -4 2 -39 50 -77 108 -129 196 -442 628 -547 755 -9 11 -69 85 -134
165 -65 80 -130 159 -145 175 -167 191 -255 292 -264 301 -227 245 -442 464
-650 659 -184 174 -170 161 -260 240 -44 38 -82 72 -85 75 -3 3 -32 28 -65 55
-33 28 -62 53 -65 56 -9 10 -281 232 -375 305 -524 409 -1152 816 -1725 1118
-129 68 -517 261 -605 301 -400 181 -871 366 -1225 481 -8 3 -15 5 -15 4 0 -1
-13 4 -30 10 -66 26 -541 168 -615 185 -53 12 -80 19 -115 30 -22 7 -53 15
-70 18 -16 3 -106 24 -200 46 -93 22 -260 58 -370 80 -184 37 -225 44 -310 57
-16 3 -52 9 -80 14 -54 10 -113 19 -160 25 -46 6 -115 16 -133 20 -15 2 -97
13 -162 20 -50 6 -136 16 -165 20 -41 6 -139 16 -205 20 -30 3 -78 7 -106 10
-28 3 -89 7 -135 10 -46 3 -113 7 -149 10 -157 12 -369 18 -693 19 -192 1
-349 1 -350 0z"/>
</g>
</svg>
